<?xml version="1.0" standalone="no"?>
<!DOCTYPE svg PUBLIC "-//W3C//DTD SVG 20010904//EN"
 "http://www.w3.org/TR/2001/REC-SVG-20010904/DTD/svg10.dtd">
<svg version="1.0" xmlns="http://www.w3.org/2000/svg"
 width="702.000000pt" height="702.000000pt" viewBox="0 0 702.000000 702.000000"
 preserveAspectRatio="xMidYMid meet">
<metadata>
Created by potrace 1.11, written by Peter Selinger 2001-2013
</metadata>
<g transform="translate(0.000000,702.000000) scale(0.100000,-0.100000)"
fill="#000000" stroke="none">
<path d="M6123 6996 c-27 -25 -43 -36 -53 -36 -5 0 -10 -5 -10 -12 0 -6 -2 -9
-5 -6 -8 7 -71 -53 -67 -64 1 -5 -2 -7 -7 -4 -5 3 -30 -14 -55 -39 -25 -24
-46 -42 -46 -39 0 3 -36 -31 -80 -74 -44 -44 -80 -78 -80 -76 0 1 -13 -9 -28
-24 -15 -15 -26 -30 -24 -34 2 -5 -4 -8 -12 -8 -8 0 -18 -9 -21 -21 -4 -11 -9
-18 -12 -16 -2 3 -21 -13 -41 -36 -20 -22 -49 -53 -64 -68 -16 -14 -28 -32
-28 -39 0 -7 -3 -10 -6 -7 -8 8 -50 -44 -46 -56 1 -5 -1 -6 -5 -4 -5 2 -18 -6
-31 -19 -12 -13 -21 -24 -18 -24 2 0 -12 -18 -32 -39 -20 -21 -48 -53 -62 -71
-14 -18 -34 -41 -44 -51 -11 -11 -17 -19 -13 -19 4 0 -1 -8 -10 -19 -59 -63
-93 -101 -89 -101 3 0 -10 -17 -29 -37 -19 -20 -32 -41 -29 -45 3 -4 -2 -8
-10 -8 -10 0 -13 -6 -9 -17 3 -10 3 -15 -2 -11 -4 4 -22 -15 -39 -43 -18 -27
-36 -46 -41 -42 -4 4 -5 3 -2 -4 4 -6 0 -18 -8 -26 -8 -9 -15 -20 -15 -26 0
-5 -8 -15 -17 -20 -10 -6 -14 -11 -10 -11 4 0 -1 -10 -13 -22 -11 -12 -20 -28
-20 -35 0 -7 -4 -13 -10 -13 -5 0 -10 -7 -10 -15 0 -9 -7 -18 -15 -21 -8 -4
-15 -12 -15 -20 0 -8 -6 -14 -12 -14 -10 0 -10 -2 0 -9 11 -7 10 -9 -3 -15 -9
-3 -14 -10 -11 -15 4 -5 3 -11 -1 -13 -11 -4 -83 -116 -83 -128 0 -5 -3 -10
-7 -10 -5 0 -19 -23 -32 -50 -14 -28 -29 -50 -33 -50 -4 0 -8 -7 -8 -15 0 -8
-3 -15 -7 -15 -5 0 -17 -20 -28 -45 -16 -38 -24 -45 -48 -45 -15 0 -26 4 -22
9 3 6 -4 8 -15 6 -11 -2 -20 1 -20 7 0 6 -3 9 -6 5 -4 -3 -19 0 -34 8 -15 8
-30 11 -34 8 -3 -4 -6 -2 -6 3 0 5 -8 10 -17 11 -10 1 -43 9 -73 18 -50 15
-106 26 -137 28 -7 0 -13 3 -13 6 0 3 -12 6 -27 6 -40 1 -115 12 -137 21 -15
6 -17 4 -11 -7 5 -8 -2 -5 -15 6 -13 11 -20 14 -16 8 4 -7 2 -13 -3 -13 -6 0
-11 5 -11 11 0 5 -4 8 -9 5 -5 -4 -12 0 -14 6 -4 10 -6 10 -6 1 -1 -9 -8 -10
-27 -2 -15 5 -29 7 -32 4 -3 -3 -16 2 -30 11 -13 9 -21 11 -18 5 5 -7 -2 -10
-18 -9 -15 1 -26 5 -26 8 0 3 -15 6 -32 7 -72 3 -108 8 -108 17 0 5 -7 3 -15
-4 -10 -8 -15 -9 -15 -2 0 6 -7 9 -15 5 -9 -3 -25 3 -36 13 -16 14 -19 15 -14
2 5 -12 1 -14 -19 -11 -14 3 -23 10 -20 15 4 6 -3 5 -15 -1 -17 -10 -22 -9
-27 4 -3 8 -10 12 -15 9 -5 -3 -9 0 -9 6 0 6 -4 8 -10 5 -5 -3 -10 -1 -10 5 0
7 -8 9 -20 5 -15 -5 -18 -3 -14 9 4 12 2 15 -9 11 -8 -4 -17 1 -21 12 -6 15
-8 15 -16 3 -8 -12 -10 -12 -10 4 0 15 -3 16 -15 6 -12 -10 -15 -10 -15 3 0
11 -6 14 -15 11 -8 -4 -22 -1 -30 6 -8 7 -21 10 -30 7 -8 -4 -16 -3 -19 1 -4
6 -34 7 -133 1 -18 -1 -33 -7 -33 -13 0 -7 -3 -8 -8 -1 -8 12 -22 13 -39 2 -8
-5 -13 -3 -13 4 0 8 -4 8 -12 2 -7 -6 -21 -9 -30 -8 -10 2 -18 0 -18 -5 0 -4
-10 -6 -22 -2 -11 3 -19 1 -16 -4 4 -5 -15 -10 -40 -11 -26 -1 -63 -3 -83 -5
-19 -1 -40 2 -47 6 -7 4 -12 3 -12 -2 0 -12 -39 -4 -59 12 -11 8 -13 8 -7 -1
5 -9 -4 -12 -33 -10 -23 1 -41 6 -41 10 0 5 -6 5 -12 1 -19 -12 -48 -12 -48 0
0 6 -5 4 -10 -4 -8 -12 -10 -12 -10 -1 0 11 -3 11 -15 1 -11 -9 -15 -9 -15 -1
0 7 -5 9 -12 5 -15 -10 -78 -11 -78 -1 0 4 -10 3 -21 -4 -16 -8 -20 -8 -14 1
6 9 2 9 -14 1 -15 -8 -21 -9 -21 -1 0 6 -5 8 -12 4 -17 -11 -58 -11 -58 -1 0
4 -9 3 -20 -3 -15 -8 -20 -8 -20 2 0 10 -2 10 -9 -1 -6 -9 -11 -10 -15 -2 -5
8 -13 8 -26 1 -22 -12 -42 -10 -52 5 -5 6 -8 4 -8 -5 0 -13 -1 -13 -10 0 -6 9
-10 10 -10 3 0 -7 -21 -12 -57 -12 -116 -2 -133 -3 -127 -12 3 -5 -2 -6 -10
-3 -9 3 -13 11 -9 18 4 6 -1 5 -10 -2 -9 -8 -21 -11 -27 -7 -5 3 -10 1 -10 -6
0 -8 -4 -8 -15 1 -8 7 -15 9 -15 4 0 -5 -11 -10 -25 -10 -16 -1 -22 2 -18 10
4 6 -1 5 -10 -3 -9 -7 -28 -11 -42 -9 -15 3 -22 1 -18 -5 4 -6 0 -8 -10 -4
-10 4 -17 1 -17 -6 0 -7 -3 -8 -8 -2 -11 15 -32 17 -32 2 0 -8 -4 -7 -10 3 -5
8 -10 10 -10 4 0 -6 -11 -10 -25 -9 -14 2 -25 -1 -25 -7 0 -5 -9 -7 -20 -3
-10 3 -29 1 -41 -5 -17 -10 -20 -9 -13 2 6 10 5 11 -7 2 -8 -6 -24 -10 -36 -9
-13 1 -23 -3 -23 -8 0 -5 -7 -7 -15 -3 -8 3 -15 2 -15 -3 0 -4 -13 -7 -30 -6
-16 1 -30 -1 -30 -5 0 -7 -9 -9 -54 -12 -14 -1 -22 -6 -19 -11 3 -5 -3 -7 -13
-6 -11 2 -29 -2 -41 -9 -13 -7 -23 -9 -23 -5 0 4 -4 2 -8 -5 -5 -7 -19 -15
-32 -17 -13 -3 -28 -11 -32 -19 -5 -9 -15 -13 -23 -10 -8 4 -15 1 -15 -6 0 -6
-5 -8 -10 -5 -6 3 -10 -1 -10 -10 0 -9 -4 -14 -9 -10 -6 3 -14 -3 -20 -12 -6
-10 -11 -14 -11 -9 0 5 -19 -11 -42 -35 -22 -24 -37 -38 -33 -30 5 10 4 12 -4
7 -6 -4 -9 -11 -6 -16 3 -5 -5 -19 -17 -31 -13 -12 -16 -18 -8 -14 12 7 13 6
3 -7 -7 -8 -9 -19 -5 -23 4 -5 2 -5 -5 -2 -10 7 -30 -45 -25 -65 1 -5 -2 -8
-6 -8 -10 0 -9 -111 1 -127 5 -7 6 -13 3 -13 -12 0 26 -85 44 -97 11 -8 18
-17 16 -21 -2 -4 2 -13 10 -20 8 -7 14 -11 14 -8 0 3 12 -6 26 -19 15 -14 31
-25 37 -25 5 0 17 -8 26 -18 19 -20 71 -55 71 -47 0 3 6 1 12 -5 28 -23 88
-59 88 -52 0 4 4 2 8 -3 4 -6 27 -26 52 -45 25 -19 56 -48 69 -64 14 -15 30
-34 37 -41 7 -7 10 -15 7 -19 -4 -3 2 -6 12 -6 10 0 16 -3 12 -6 -3 -4 1 -13
9 -21 8 -8 12 -19 9 -24 -4 -5 -1 -9 6 -9 6 0 9 -8 6 -20 -3 -11 -1 -23 5 -26
5 -3 7 -17 3 -31 -4 -17 -2 -23 6 -18 8 5 9 1 4 -15 -4 -13 -3 -20 2 -17 5 3
8 -11 6 -34 -2 -26 1 -39 10 -39 7 0 8 -3 2 -8 -15 -11 -17 -32 -2 -32 8 0 7
-4 -3 -10 -12 -8 -12 -10 -1 -10 11 0 11 -3 1 -15 -10 -12 -9 -16 4 -21 15 -6
15 -7 0 -19 -16 -11 -16 -13 2 -23 18 -11 18 -11 0 -12 -15 0 -16 -3 -6 -15 9
-10 9 -15 1 -15 -13 0 -10 -22 4 -32 6 -5 6 -8 -1 -8 -10 0 -15 -31 -15 -83 0
-9 -5 -15 -10 -11 -12 7 -7 -19 6 -28 6 -5 5 -8 -4 -8 -9 0 -11 -8 -7 -25 5
-18 3 -24 -6 -23 -8 2 -12 -5 -10 -15 2 -11 -5 -26 -15 -34 -10 -8 -12 -12 -5
-8 17 9 15 1 -8 -40 -23 -41 -25 -49 -7 -39 7 4 9 3 4 -2 -5 -5 -13 -10 -18
-10 -22 -3 -23 -5 -9 -14 13 -8 13 -10 -2 -10 -11 0 -16 -6 -13 -20 3 -15 -2
-20 -18 -20 -18 0 -19 -2 -7 -10 12 -8 12 -10 -3 -16 -9 -3 -17 -10 -17 -16 0
-5 6 -6 13 -3 6 4 4 0 -5 -8 -10 -8 -15 -17 -11 -21 4 -4 -1 -4 -11 0 -14 5
-17 4 -12 -4 4 -7 2 -12 -3 -12 -6 0 -11 -7 -11 -16 0 -9 -5 -12 -12 -8 -8 5
-8 2 1 -10 8 -9 10 -16 5 -15 -27 5 -36 -1 -24 -16 10 -12 8 -13 -10 -10 -19
4 -20 2 -8 -12 9 -12 9 -15 0 -9 -7 4 -12 2 -12 -4 0 -6 -5 -8 -10 -5 -6 4
-10 3 -9 -2 4 -21 -2 -34 -13 -27 -8 5 -9 2 -5 -10 4 -10 3 -15 -3 -11 -6 3
-10 1 -10 -4 0 -6 -7 -11 -15 -11 -8 0 -15 -5 -15 -11 0 -5 6 -7 12 -4 7 4 4
-1 -7 -10 -11 -9 -20 -20 -20 -25 0 -12 -14 -25 -28 -25 -7 -1 -11 -6 -10 -13
2 -7 -3 -11 -10 -9 -6 1 -11 -4 -9 -12 2 -9 -3 -11 -14 -7 -14 5 -15 4 -4 -9
11 -13 10 -14 -4 -9 -11 4 -16 1 -16 -12 0 -9 -3 -15 -6 -11 -10 9 -36 -21
-29 -33 4 -6 3 -9 -2 -8 -5 2 -21 -9 -35 -24 -14 -15 -28 -25 -32 -21 -4 4 -4
-1 0 -12 6 -15 4 -17 -9 -12 -15 6 -22 -3 -18 -25 0 -5 -6 -8 -14 -8 -8 0 -15
-7 -15 -16 0 -10 -6 -14 -15 -10 -8 3 -14 1 -12 -4 1 -5 -7 -16 -18 -25 -11
-9 -14 -13 -6 -9 9 5 12 3 7 -4 -4 -7 -14 -12 -22 -12 -8 0 -12 -4 -9 -10 3
-5 1 -10 -4 -10 -6 0 -11 -8 -11 -17 0 -15 -2 -16 -10 -3 -7 12 -10 12 -10 1
0 -7 -11 -22 -25 -33 -25 -20 -35 -45 -12 -32 7 4 9 3 4 -2 -5 -5 -12 -9 -16
-9 -14 0 -42 -35 -36 -45 4 -6 3 -10 -2 -9 -20 3 -34 -2 -28 -11 3 -5 1 -10
-5 -10 -7 0 -9 -7 -6 -16 3 -8 2 -12 -4 -9 -6 3 -10 1 -10 -5 0 -6 -4 -8 -10
-5 -5 3 -7 0 -4 -8 3 -9 -4 -22 -18 -31 -12 -9 -18 -16 -13 -16 6 0 2 -5 -9
-11 -14 -9 -15 -13 -6 -19 9 -6 7 -10 -8 -14 -17 -6 -33 -31 -36 -61 -1 -5 -8
-15 -16 -22 -8 -7 -11 -13 -6 -13 5 0 1 -9 -8 -19 -10 -11 -16 -26 -14 -33 3
-7 -2 -19 -11 -26 -9 -8 -10 -11 -3 -7 16 8 16 -7 0 -24 -11 -11 -10 -12 2 -6
12 7 13 6 3 -7 -7 -8 -10 -18 -6 -21 3 -4 1 -7 -7 -7 -10 0 -10 -3 0 -15 8
-10 9 -15 2 -15 -7 0 -9 -7 -5 -17 5 -12 3 -14 -8 -8 -12 8 -12 6 -1 -8 8 -9
10 -22 6 -29 -12 -19 -12 -48 0 -48 6 0 5 -4 -3 -9 -9 -6 -10 -10 -2 -16 9 -5
9 -10 0 -21 -9 -11 -8 -14 2 -14 12 0 12 -2 1 -9 -15 -9 -15 -20 -1 -38 7 -7
6 -14 -2 -18 -8 -6 -7 -10 2 -17 11 -8 11 -11 1 -15 -10 -4 -10 -8 -1 -19 9
-11 8 -14 -2 -14 -9 -1 -8 -4 4 -11 9 -6 14 -15 10 -22 -9 -14 -11 -57 -2 -57
3 0 5 -10 5 -23 -1 -12 2 -28 7 -34 6 -9 5 -13 -4 -13 -11 0 -11 -2 1 -10 8
-5 11 -10 6 -10 -5 0 -2 -8 5 -17 12 -14 12 -15 1 -9 -11 7 -12 4 -3 -11 6
-11 7 -23 4 -27 -3 -3 0 -6 7 -6 11 0 11 -3 2 -12 -7 -7 -12 -17 -12 -22 0 -6
4 -5 9 2 6 10 10 9 14 -7 3 -13 1 -19 -5 -15 -6 4 -3 -5 7 -19 12 -18 13 -27
4 -32 -6 -4 -7 -10 -3 -14 14 -9 37 -54 25 -46 -6 3 -1 -11 11 -32 21 -35 21
-37 3 -23 -19 14 -19 14 -3 -6 10 -11 18 -28 18 -37 0 -9 5 -17 11 -17 5 0 7
-4 4 -10 -3 -5 -2 -10 2 -10 5 0 9 -8 10 -17 4 -51 8 -61 22 -55 8 3 12 1 8
-5 -4 -6 2 -18 13 -28 10 -9 16 -23 13 -31 -3 -8 0 -14 7 -14 9 0 9 -4 -1 -17
-9 -10 -9 -14 -2 -10 14 9 36 -26 25 -38 -4 -5 2 -5 13 -1 11 4 16 4 13 0 -4
-4 -1 -16 7 -28 8 -11 15 -30 15 -41 0 -16 2 -17 10 -5 8 12 10 11 10 -7 0
-13 5 -23 11 -23 6 0 9 -7 6 -15 -4 -8 -1 -17 5 -21 7 -5 8 -2 3 6 -5 9 -4 11
3 6 7 -4 12 -14 12 -22 0 -8 4 -14 9 -14 5 0 21 -17 37 -38 19 -25 22 -33 9
-23 -11 8 -8 3 7 -12 14 -14 29 -36 33 -47 4 -11 11 -18 16 -15 5 4 9 -1 9 -9
0 -9 5 -16 10 -16 6 0 10 -9 10 -21 0 -11 5 -17 10 -14 6 3 10 1 10 -5 0 -7 6
-10 14 -7 9 4 12 -2 10 -20 -1 -14 0 -23 2 -20 8 8 94 -82 94 -98 0 -8 5 -15
11 -15 5 0 7 4 4 10 -3 6 1 7 9 4 9 -3 16 -15 16 -25 0 -17 11 -24 33 -20 4 0
7 -5 7 -12 0 -8 12 -20 27 -28 16 -8 32 -20 36 -27 5 -7 13 -9 19 -6 7 5 9 1
5 -9 -4 -11 -2 -14 8 -11 7 3 18 -4 25 -15 6 -13 21 -21 36 -21 14 0 23 -4 20
-8 -2 -4 9 -14 25 -21 18 -8 26 -17 22 -24 -5 -9 -3 -9 8 0 12 10 17 8 27 -8
7 -10 19 -19 28 -19 9 0 12 5 8 12 -4 7 -3 8 4 4 6 -4 8 -14 5 -23 -4 -11 -3
-14 5 -9 7 4 12 3 12 -3 0 -6 7 -7 17 -4 11 4 14 3 9 -5 -5 -8 0 -12 13 -13
39 -3 43 -4 55 -21 10 -14 15 -15 26 -5 8 8 11 8 7 1 -8 -14 20 -29 61 -33 8
-1 10 -6 6 -13 -4 -7 -4 -10 1 -6 4 4 22 -1 39 -11 17 -10 39 -17 49 -16 9 2
17 -1 17 -6 0 -6 4 -8 9 -4 5 3 12 1 16 -4 3 -6 13 -7 22 -4 12 5 14 3 8 -7
-6 -10 -4 -12 8 -7 10 3 17 2 17 -3 0 -5 7 -6 17 -3 11 4 14 3 9 -5 -5 -8 2
-11 23 -8 17 2 28 0 26 -5 -3 -4 -1 -10 5 -14 5 -3 10 0 10 7 0 8 5 6 11 -5 6
-9 15 -15 20 -11 6 3 20 -2 32 -13 17 -14 19 -14 9 -1 -12 15 -11 16 17 5 17
-6 31 -15 31 -20 0 -5 7 -4 15 3 8 7 15 8 15 3 0 -5 6 -10 13 -10 22 -1 42 -8
49 -18 5 -6 8 -4 8 5 0 9 3 11 8 5 14 -21 58 -33 77 -23 13 8 16 7 11 -1 -7
-11 11 -16 47 -13 12 1 16 -2 11 -11 -5 -7 0 -6 11 3 11 9 16 10 11 3 -8 -14
-4 -15 51 -15 18 0 33 -5 33 -11 0 -5 7 -4 15 3 10 8 15 9 15 2 0 -7 7 -9 17
-5 10 4 14 2 10 -4 -3 -5 0 -10 8 -10 8 0 15 5 15 11 0 5 6 1 14 -9 13 -18 13
-18 24 1 9 16 11 16 12 3 0 -11 9 -16 25 -16 13 0 22 4 19 9 -4 6 4 4 17 -4
13 -8 43 -14 66 -14 24 1 43 -2 43 -6 0 -4 12 -3 26 2 18 7 23 7 18 -1 -4 -7
-1 -10 7 -7 8 3 27 1 42 -3 26 -7 27 -6 15 8 -12 15 -11 15 9 4 27 -14 114
-20 106 -8 -3 5 3 4 14 -2 14 -7 23 -7 30 0 8 8 13 7 18 -2 6 -8 4 -10 -5 -4
-9 5 -11 4 -6 -4 4 -6 13 -8 19 -4 19 12 37 12 37 1 0 -6 8 -4 18 5 10 10 22
14 26 10 4 -5 12 -9 17 -9 5 -1 10 -2 12 -4 9 -7 36 -6 31 1 -3 5 -10 6 -16 3
-7 -4 -8 -2 -4 4 4 7 14 9 24 4 21 -9 53 -9 69 1 6 4 14 3 18 -2 4 -7 15 -7
31 -1 15 6 23 6 19 1 -3 -5 -1 -12 5 -16 5 -3 10 0 10 7 0 9 17 13 62 12 35
-1 69 3 77 10 11 8 13 8 7 -1 -9 -16 -1 -16 26 -2 12 7 18 7 14 1 -5 -9 14 -9
34 -2 3 1 13 1 24 0 11 -1 15 3 12 9 -5 7 0 8 16 2 17 -6 26 -4 36 8 7 9 11
11 7 4 -7 -15 46 -13 57 2 5 6 8 5 8 -3 0 -7 5 -10 10 -7 6 4 7 12 3 18 -3 7
4 3 16 -8 16 -14 22 -15 19 -5 -2 11 6 14 31 11 21 -2 31 1 27 7 -4 7 4 8 24
2 19 -5 28 -5 25 1 -4 5 7 9 24 9 16 0 33 5 36 10 4 7 12 7 25 0 13 -7 21 -7
26 2 5 7 3 8 -6 3 -9 -6 -11 -4 -5 4 5 9 10 10 18 2 8 -8 16 -6 31 7 19 16 19
16 13 -3 -6 -18 -5 -18 5 -4 7 9 21 15 31 13 9 -1 24 4 32 13 10 9 15 10 15 2
0 -8 5 -8 17 2 15 12 16 12 8 -1 -6 -11 -3 -10 12 3 11 9 23 14 26 11 4 -4 14
-1 24 7 11 9 14 10 9 2 -12 -20 1 -15 25 9 12 13 19 18 16 12 -5 -8 2 -11 17
-10 13 0 22 4 19 9 -2 4 4 7 14 7 11 0 24 5 31 12 9 9 12 9 12 -3 1 -11 3 -10
11 3 6 11 16 15 26 11 11 -4 14 -3 9 5 -5 8 -2 10 8 6 9 -3 16 -1 16 4 0 6 9
9 21 7 16 -3 19 0 15 12 -5 13 -4 14 9 3 10 -8 15 -9 15 -1 0 6 6 10 13 9 6
-2 11 3 9 11 -3 12 0 12 12 1 11 -8 16 -9 16 -1 0 6 3 10 8 10 20 -3 32 2 26
12 -4 8 0 9 15 4 13 -4 21 -2 21 5 0 7 7 10 15 6 8 -3 15 -1 15 5 0 6 6 7 13
3 7 -5 6 0 -3 11 -14 17 -14 18 9 6 13 -7 21 -8 17 -3 -3 6 -2 13 4 17 5 3 10
0 10 -7 0 -9 3 -10 8 -2 4 6 17 14 30 18 12 4 22 12 22 18 0 5 7 7 16 4 11 -4
18 1 21 14 4 15 9 18 18 10 10 -8 15 -8 21 1 5 8 3 9 -6 4 -9 -5 -11 -4 -6 3
4 7 13 12 21 12 7 0 16 7 19 16 4 9 9 14 13 11 3 -4 15 -1 27 5 11 7 25 11 30
10 5 -2 6 4 2 13 -3 9 -2 13 4 10 6 -3 10 -2 10 4 0 6 7 8 15 5 8 -4 15 -1 15
6 0 6 5 8 10 5 9 -6 14 7 11 27 0 4 5 5 13 2 8 -3 17 -1 21 5 3 6 15 11 26 11
10 0 19 5 19 11 0 5 -4 8 -9 4 -5 -3 -13 0 -17 6 -4 7 -3 9 4 5 6 -3 13 -2 17
4 4 6 11 8 16 5 5 -4 9 -1 9 5 0 6 12 15 26 20 14 6 28 20 31 31 3 11 9 16 12
11 3 -5 15 0 26 10 20 19 20 19 0 13 -11 -3 -5 2 13 12 20 10 31 22 27 30 -2
8 -1 11 4 8 5 -3 20 5 33 17 13 13 15 16 4 8 -19 -15 -19 -15 0 11 10 15 22
25 27 22 4 -2 7 4 7 14 0 15 2 16 11 3 9 -12 10 -11 6 8 -3 15 0 22 9 22 8 0
14 7 14 16 0 9 5 12 12 8 7 -5 9 0 6 14 -4 16 -2 19 10 15 10 -4 13 -2 8 5 -4
8 0 12 11 12 15 0 16 2 3 10 -9 6 -10 10 -3 10 6 0 15 9 18 20 4 11 11 18 16
15 5 -4 9 -2 9 4 0 5 -6 12 -12 14 -7 3 -2 6 12 6 20 1 22 3 10 11 -13 8 -13
10 2 10 11 0 16 6 13 20 -2 11 1 23 7 26 7 5 8 2 3 -6 -5 -9 -4 -11 3 -6 7 4
12 16 12 27 0 13 4 18 12 13 8 -5 9 -2 5 10 -5 12 0 19 16 26 12 5 17 9 10 9
-14 1 13 61 28 61 5 0 9 5 9 11 0 5 -6 7 -12 4 -7 -4 -3 2 8 12 18 16 20 23
11 39 -9 17 -9 18 6 5 15 -12 17 -12 11 3 -4 10 -1 16 7 16 12 0 12 2 1 9 -11
6 -10 10 3 15 15 5 15 9 4 23 -8 10 -9 14 -2 10 13 -8 31 35 35 81 1 6 6 12
12 12 6 0 5 4 -3 9 -12 8 -12 12 -3 24 7 8 14 29 15 46 1 17 7 31 12 31 6 0 3
5 -5 10 -12 8 -12 10 -1 10 11 0 11 3 0 17 -8 9 -9 14 -3 10 15 -9 15 43 0 62
-8 11 -8 13 0 8 7 -4 14 0 18 8 3 8 2 15 -2 15 -4 0 -6 22 -5 50 1 27 -3 50
-8 50 -5 0 -9 5 -9 11 0 5 4 8 8 5 10 -6 9 25 -2 42 -4 6 -4 17 0 24 5 7 3 8
-6 3 -9 -5 -10 -2 -5 14 3 11 2 21 -3 21 -6 0 -13 7 -16 16 -6 15 -4 15 11 3
15 -12 16 -12 8 1 -4 8 -15 24 -24 34 -9 11 -11 17 -5 13 6 -3 11 0 11 8 0 8
-4 12 -9 9 -7 -5 -12 20 -11 54 1 7 -1 11 -4 8 -3 -3 -11 1 -18 7 -10 9 -10
15 -1 26 8 11 8 13 0 8 -7 -4 -15 0 -18 9 -4 10 -2 13 7 9 6 -4 4 0 -5 8 -10
8 -18 22 -18 31 0 9 -6 19 -14 22 -9 3 -12 12 -9 21 5 12 3 14 -7 8 -10 -6
-12 -4 -7 8 4 11 1 17 -8 17 -8 0 -15 5 -15 11 0 5 6 7 13 4 6 -4 2 2 -10 13
-12 11 -19 22 -16 26 4 3 -2 6 -13 6 -16 0 -17 2 -4 10 10 6 11 10 3 10 -7 0
-13 7 -13 16 0 9 -6 14 -13 11 -9 -3 -13 3 -13 17 1 11 -4 20 -11 19 -7 -2
-10 6 -8 17 2 11 -1 19 -8 17 -7 -1 -11 4 -10 11 2 6 -4 12 -13 12 -8 0 -12 5
-9 10 3 6 1 10 -4 10 -6 0 -11 10 -11 21 0 16 -5 20 -18 17 -15 -4 -18 0 -16
18 1 13 -2 24 -8 24 -14 0 -38 26 -38 43 0 19 -34 49 -45 40 -4 -5 -5 -2 -1 5
4 6 2 12 -3 12 -6 0 -10 6 -8 13 1 6 -4 11 -11 9 -8 -1 -11 2 -7 8 3 5 0 10
-7 10 -9 0 -9 3 2 10 12 8 10 10 -8 10 -13 0 -20 4 -17 10 3 5 1 10 -4 10 -6
0 -11 9 -11 21 0 11 -4 17 -10 14 -5 -3 -10 -1 -10 6 0 6 -8 18 -17 26 -12 10
-13 12 -3 8 8 -4 6 1 -5 10 -11 9 -19 21 -18 26 2 5 -2 9 -8 9 -5 0 -7 5 -4
10 3 6 -1 10 -9 10 -9 0 -16 9 -16 20 0 11 -4 20 -10 20 -5 0 -10 7 -10 16 0
9 -5 12 -12 8 -8 -5 -7 0 2 11 8 10 11 16 5 13 -13 -7 -29 11 -33 37 -2 11 -8
22 -13 23 -5 2 -9 12 -9 23 0 10 -4 19 -10 19 -5 0 -7 7 -4 15 4 8 1 15 -5 15
-6 0 -11 5 -11 11 0 5 6 7 13 3 7 -5 6 -1 -3 10 -8 10 -15 27 -17 39 -2 11 -8
26 -14 33 -7 8 -6 14 2 20 8 5 9 3 4 -6 -5 -9 -4 -11 3 -6 9 5 9 13 2 27 -6
10 -7 19 -3 19 4 0 2 4 -6 9 -9 6 -10 14 -5 22 12 19 12 33 -1 41 -6 5 -6 8 2
8 6 0 10 11 9 24 -2 15 3 27 12 31 10 4 11 9 3 18 -8 10 -7 17 2 27 10 10 9
11 -2 5 -9 -5 -8 0 3 17 9 14 13 28 10 31 -4 4 -2 13 5 20 6 8 12 26 13 40 1
14 6 23 10 21 8 -5 11 10 11 48 0 10 4 15 10 11 6 -4 8 4 5 20 -3 16 -1 24 6
21 6 -2 17 10 25 27 8 18 19 28 27 25 8 -3 11 0 7 10 -3 9 2 14 17 14 16 0 21
4 16 16 -5 14 -4 15 9 4 11 -9 15 -9 15 -1 0 11 47 36 62 33 4 -1 5 5 2 13 -4
10 0 15 15 15 13 0 25 9 31 23 5 13 9 16 10 7 0 -12 3 -12 14 2 7 10 16 15 19
11 4 -3 7 -1 7 5 0 7 7 12 16 12 9 0 12 5 8 13 -4 6 -4 9 1 5 8 -8 84 29 96
46 4 5 12 5 19 1 7 -5 11 -4 8 1 -3 5 5 19 18 32 13 12 24 20 24 17 0 -3 9 4
20 15 11 11 20 25 20 30 0 6 5 10 11 10 5 0 8 4 4 9 -3 5 5 17 17 25 15 11 18
16 8 16 -11 0 -11 3 -3 8 6 4 15 20 18 35 4 15 10 27 14 27 15 0 21 220 6 250
-7 14 -11 33 -10 43 2 9 -1 17 -5 17 -5 0 -14 16 -20 35 -6 19 -16 35 -21 35
-5 0 -9 7 -9 15 0 8 -5 15 -11 15 -5 0 -7 5 -4 10 3 6 1 10 -5 10 -6 0 -8 5
-5 10 3 6 -1 10 -9 10 -9 0 -15 3 -14 8 2 6 -36 52 -84 103 -9 9 -13 21 -10
25 4 4 2 4 -5 0 -7 -4 -19 4 -29 19 -9 14 -20 25 -26 25 -8 0 -19 9 -87 70
-15 14 -34 26 -42 28 -8 2 -15 8 -17 13 -2 5 -10 9 -17 9 -18 0 -8 34 27 90
15 25 33 56 40 70 7 14 18 31 25 38 7 7 13 20 13 28 0 8 3 14 8 14 4 0 21 23
37 51 17 28 38 63 48 78 9 14 20 34 23 44 4 9 10 17 15 17 5 0 9 5 9 11 0 7 7
17 14 23 8 6 16 17 18 25 2 8 15 26 31 41 15 15 27 32 27 39 0 6 5 11 12 11 6
0 9 3 5 6 -3 3 2 14 11 23 37 39 61 75 55 84 -3 6 -1 7 5 3 7 -4 12 -1 12 9 0
9 5 13 10 10 6 -3 10 1 10 9 0 9 5 16 12 16 6 0 9 3 6 6 -3 3 7 19 23 35 16
16 29 37 29 45 0 8 3 13 8 11 4 -2 17 7 29 20 12 13 20 23 17 23 -4 0 4 9 17
21 13 11 17 18 9 14 -8 -4 -1 5 15 19 17 14 27 26 24 26 -4 0 36 43 87 96 51
53 91 101 88 106 -3 4 -1 7 4 6 13 -4 72 49 72 64 0 6 3 8 7 5 3 -4 25 13 49
38 23 25 47 45 53 45 6 0 11 7 11 15 0 8 4 14 8 13 4 -2 22 12 39 30 18 17 36
32 40 32 5 0 20 13 35 30 14 16 28 27 31 24 3 -3 10 4 17 15 6 12 15 19 21 16
5 -4 9 -2 9 3 0 5 26 29 58 53 31 24 59 47 60 52 2 4 8 7 14 7 5 0 16 6 23 13
8 6 26 21 41 32 14 11 32 26 40 33 8 7 14 10 14 7 0 -4 19 8 43 26 23 18 43
34 45 35 2 1 5 14 7 29 2 22 -12 41 -76 103 -97 96 -105 102 -113 95 -3 -4 -6
-2 -6 4 0 8 -49 37 -57 34 -2 -1 -12 8 -23 19 -12 12 -25 18 -30 15 -6 -4 -10
-1 -10 5 0 7 -7 9 -16 6 -8 -3 -12 -2 -9 4 3 6 -1 10 -9 10 -9 0 -16 5 -16 10
0 6 -11 10 -24 10 -13 0 -26 5 -28 11 -2 7 -15 12 -28 13 -14 1 -29 4 -35 8
-5 3 -15 1 -22 -6z m-4878 -6486 c-3 -5 -12 -10 -18 -10 -7 0 -6 4 3 10 19 12
23 12 15 0z"/>
<path d="M1063 3165 c0 -8 4 -12 9 -9 5 3 6 10 3 15 -9 13 -12 11 -12 -6z"/>
<path d="M573 1265 c0 -8 4 -12 9 -9 5 3 6 10 3 15 -9 13 -12 11 -12 -6z"/>
</g>
</svg>
