<svg id="Layer_1" data-name="Layer 1" xmlns="http://www.w3.org/2000/svg" viewBox="0 0 1107.36 111.37"><defs><style>.cls-1{fill:#fff;}</style></defs><title>logo-majow</title><path class="cls-1" d="M177.26,111.37h-41.9l22.32-68.84L113.05,104a14.85,14.85,0,0,1-1.68,1.89q-1.26,1.26-2.74,2.53a22.68,22.68,0,0,1-2.84,2.11,4.62,4.62,0,0,1-2.21.84H73.47v-.21q-1.69-.42-3.05-3.16a10.47,10.47,0,0,1-1.37-4L64.42,42.53,42.11,111.37H0L36.21,0h64.84a11.25,11.25,0,0,1,3.79,3.37,18.5,18.5,0,0,1,2.11,4.42l.84,44,30.11-44a35.42,35.42,0,0,1,4.84-4.42A27.76,27.76,0,0,1,148.84,0h64.63Z"/><path class="cls-1" d="M187.79,106.53l1.47-2.95a13,13,0,0,1,1.68-2.53l69.9-93.47-.21.21a22.65,22.65,0,0,1,3.05-4.1A15.46,15.46,0,0,1,269.05,0h45.26A2.34,2.34,0,0,1,316,.95a10.2,10.2,0,0,1,1.47,2.21,8.94,8.94,0,0,1,.84,2.53,13,13,0,0,1,.21,1.89l.21-.21,7.37,104H281.47L280,90.11q-4.21,4.85-9.47,10.53t-10.74,10.74H189.26q-1.06,0-1.47-1.58a5.6,5.6,0,0,1,0-3.05Zm61.68-25.05h30.32L279.16,40Z"/><path class="cls-1" d="M488.84,0,455.37,103.16a23.54,23.54,0,0,1-10.53,8.21H341.89q-5.05-3.79-5.05-8.21l15.58-48.42H394.1l-7.79,24.42q-.21,2.11.63,2.32h31.79A10.82,10.82,0,0,0,421,79.37l16.21-49.47H400.63q5.05-8,10.32-15.58A104.57,104.57,0,0,1,422.94,0Z"/><path class="cls-1" d="M472,111.16q-4.63-3.36-4.63-8L498.31,8q2.95-5.26,10.32-8H611.79q4.63,1.9,4.84,8.21l-30.74,94.95a23.54,23.54,0,0,1-10.53,8.21H472.63ZM533,30.84A5.44,5.44,0,0,0,532,32L516.84,79.16q-.21,2.11.63,2.32h31.79a10.86,10.86,0,0,0,2.32-2.11l15.37-47.16c0-1.4-.28-2.17-.84-2.32H534.73A6.36,6.36,0,0,0,533,30.84Z"/><path class="cls-1" d="M738.94,71.58,789.89,0h44.63L757.47,103.79l.21-.21a23,23,0,0,1-3.05,4.1,15.18,15.18,0,0,1-5.58,3.68H705.47a2.2,2.2,0,0,1-1.79-.95,13.08,13.08,0,0,1-1.37-2.21,8.86,8.86,0,0,1-.84-2.53,12.48,12.48,0,0,1-.21-1.89l-.84-13.26-9.68,13.26.21-.21a25.66,25.66,0,0,1-2.95,4.1,14.13,14.13,0,0,1-5.47,3.68H639.36a2.28,2.28,0,0,1-1.79-.84,9.81,9.81,0,0,1-1.37-2.11,12.37,12.37,0,0,1-.95-2.53,8.66,8.66,0,0,1-.32-1.89L627.57,0h44.84l2.11,71.58,20-28.21L693.26,0h43.16Z"/><path class="cls-1" d="M910.94,29.89l-26.53,81.47h-41.9L869,29.89H829.47A159.66,159.66,0,0,1,839,15.16,174.19,174.19,0,0,1,851.57,0H961a161.62,161.62,0,0,1-12,15.05q-6.53,7.26-14.11,14.84Z"/><path class="cls-1" d="M1012,71.58,1062.73,0h44.63l-76.63,103.37a.61.61,0,0,1-.21.42.61.61,0,0,0-.21.42q-1.48,1.9-3.05,3.79a13.12,13.12,0,0,1-5.16,3.37H976.84a2.29,2.29,0,0,1-1.79-.84,9.81,9.81,0,0,1-1.37-2.11,8.84,8.84,0,0,1-.84-2.53,12.51,12.51,0,0,1-.21-1.89L965.47,0h44.42Z"/><path class="cls-1" d="M791.68,90.95q.84-2.73,4.42-3.79h23.58q2.31.21,2.32,3.58l-5.47,17.05a9.39,9.39,0,0,1-4.63,3.58H788.52a8.31,8.31,0,0,1-1.79-.95q-.74-.52-.53-2.63Z"/></svg>