<svg id="1ae0ab1c-fb79-48b3-87f8-7c5a4524414f" data-name="Layer 1" xmlns="http://www.w3.org/2000/svg" viewBox="0 0 1553.66784 111.36914"><defs><style>.\31 7a51cd2-d50c-4abf-8e08-65cba2ce5b3e{fill:#fff;}</style></defs><title>logo-majowww</title><path class="17a51cd2-d50c-4abf-8e08-65cba2ce5b3e" d="M177.26367,111.36914h-41.895l22.31592-68.84277L113.05273,104.001a14.84536,14.84536,0,0,1-1.68408,1.89453q-1.26343,1.2627-2.73682,2.52637a22.67713,22.67713,0,0,1-2.84229,2.10547,4.61806,4.61806,0,0,1-2.21045.8418H73.47363v-.21094q-1.6875-.41895-3.05225-3.15723a10.47433,10.47433,0,0,1-1.36865-4L64.4209,42.52637,42.10547,111.36914H0L36.21045,0h64.84229a11.25414,11.25414,0,0,1,3.78955,3.36816,18.504,18.504,0,0,1,2.10547,4.4209l.8418,44.001L137.895,7.78906a35.42288,35.42288,0,0,1,4.84229-4.4209A27.76349,27.76349,0,0,1,148.84229,0h64.63184Z"/><path class="17a51cd2-d50c-4abf-8e08-65cba2ce5b3e" d="M187.78711,106.52734q.83936-1.68311,1.47412-2.94727a13.03538,13.03538,0,0,1,1.68408-2.52637l69.895-93.47461-.21045.21a22.64893,22.64893,0,0,1,3.05273-4.10449A15.45871,15.45871,0,0,1,269.05078,0H314.314a2.33922,2.33922,0,0,1,1.68457.94727,10.198,10.198,0,0,1,1.47363,2.21094,8.93912,8.93912,0,0,1,.8418,2.52637,12.97526,12.97526,0,0,1,.21094,1.89453l.21045-.21094,7.36816,104.001H281.47217L279.998,90.10547q-4.21362,4.8457-9.47363,10.52637-5.26465,5.68506-10.73682,10.7373H189.26123q-1.05615,0-1.47412-1.5791a5.59835,5.59835,0,0,1,0-3.05273Zm61.68457-25.05273H279.7876L279.15625,40Z"/><path class="17a51cd2-d50c-4abf-8e08-65cba2ce5b3e" d="M488.83789,0,455.36523,103.1582a23.5398,23.5398,0,0,1-10.52734,8.21094H341.89063q-5.05225-3.78955-5.05225-8.21094L352.417,54.7373h41.68457L386.312,79.1582q-.2124,2.10791.63184,2.31641h31.78857a10.81672,10.81672,0,0,0,2.31641-2.10547l16.21094-49.47461H400.62793q5.053-7.998,10.31592-15.5791A104.57333,104.57333,0,0,1,422.94335,0Z"/><path class="17a51cd2-d50c-4abf-8e08-65cba2ce5b3e" d="M471.99609,111.1582q-4.6333-3.36475-4.63184-8L498.31152,8q2.9458-5.26025,10.31543-8H611.78613q4.62744,1.89551,4.8418,8.21094l-30.7373,94.94727a23.54264,23.54264,0,0,1-10.52637,8.21094H472.627ZM533.04883,30.8418A5.442,5.442,0,0,0,531.99609,32l-15.1582,47.1582q-.2124,2.10791.63184,2.31641h31.78906a10.8631,10.8631,0,0,0,2.31641-2.10547l15.36815-47.1582c0-1.40137-.28319-2.1748-.84178-2.31641H534.73242A6.35885,6.35885,0,0,0,533.04883,30.8418Z"/><path class="17a51cd2-d50c-4abf-8e08-65cba2ce5b3e" d="M738.94238,71.5791,789.89063,0h44.63184L757.46875,103.79l.21094-.21a23.0012,23.0012,0,0,1-3.05273,4.10449,15.17691,15.17691,0,0,1-5.5791,3.68457h-43.5791a2.19513,2.19513,0,0,1-1.78906-.94727,13.07937,13.07937,0,0,1-1.36914-2.21094,8.86265,8.86265,0,0,1-.8418-2.52637,12.47724,12.47724,0,0,1-.21-1.89453l-.84277-13.2627L690.73242,103.79l.21-.21a25.65888,25.65888,0,0,1-2.94727,4.10449,14.13066,14.13066,0,0,1-5.47363,3.68457h-43.1582a2.28368,2.28368,0,0,1-1.78906-.8418,9.81118,9.81118,0,0,1-1.36914-2.10547,12.37489,12.37489,0,0,1-.94727-2.52637,8.66379,8.66379,0,0,1-.31543-1.89453L627.57422,0H672.416l2.10547,71.5791,20-28.21094L693.25879,0H736.416Z"/><path class="17a51cd2-d50c-4abf-8e08-65cba2ce5b3e" d="M956.83691,71.5791,1007.78516,0H1052.417L975.36328,103.79l.21094-.21a23.00121,23.00121,0,0,1-3.05273,4.10449,15.17691,15.17691,0,0,1-5.5791,3.68457h-43.5791a2.19513,2.19513,0,0,1-1.78906-.94727,13.07937,13.07937,0,0,1-1.36914-2.21094,8.86265,8.86265,0,0,1-.8418-2.52637,12.47724,12.47724,0,0,1-.21-1.89453l-.84277-13.2627L908.627,103.79l.21-.21a25.65888,25.65888,0,0,1-2.94727,4.10449,14.13066,14.13066,0,0,1-5.47363,3.68457h-43.1582a2.28368,2.28368,0,0,1-1.78906-.8418,9.81119,9.81119,0,0,1-1.36914-2.10547,12.37488,12.37488,0,0,1-.94727-2.52637,8.66379,8.66379,0,0,1-.31543-1.89453L845.46875,0h44.8418L892.416,71.5791l20-28.21094L911.15332,0h43.15723Z"/><path class="17a51cd2-d50c-4abf-8e08-65cba2ce5b3e" d="M1174.73144,71.5791,1225.67969,0h44.63184l-77.05371,103.79.21094-.21a23.00123,23.00123,0,0,1-3.05273,4.10449,15.17691,15.17691,0,0,1-5.5791,3.68457h-43.5791a2.19513,2.19513,0,0,1-1.78906-.94727,13.07935,13.07935,0,0,1-1.36914-2.21094,8.86263,8.86263,0,0,1-.8418-2.52637,12.47719,12.47719,0,0,1-.21-1.89453l-.84277-13.2627-9.68359,13.2627.21-.21a25.65886,25.65886,0,0,1-2.94726,4.10449,14.13067,14.13067,0,0,1-5.47363,3.68457h-43.1582a2.28368,2.28368,0,0,1-1.78906-.8418,9.81121,9.81121,0,0,1-1.36914-2.10547,12.37488,12.37488,0,0,1-.94727-2.52637,8.66379,8.66379,0,0,1-.31543-1.89453L1063.36328,0h44.8418l2.10547,71.5791,20-28.21094L1129.04785,0h43.15723Z"/><path class="17a51cd2-d50c-4abf-8e08-65cba2ce5b3e" d="M1350.72152,29.89453l-26.52634,81.47461h-41.89551L1308.827,29.89453h-39.58008a159.65771,159.65771,0,0,1,9.5791-14.73633A174.1946,174.1946,0,0,1,1291.35241,0H1400.827a161.61721,161.61721,0,0,1-12,15.05273q-6.52881,7.2627-14.10549,14.8418Z"/><path class="17a51cd2-d50c-4abf-8e08-65cba2ce5b3e" d="M1458.29967,71.5791,1509.036,0h44.63184L1477.036,103.36914a.60894.60894,0,0,1-.21.4209.609.609,0,0,0-.21094.4209q-1.4751,1.89551-3.05273,3.79a13.1168,13.1168,0,0,1-5.15723,3.36816h-45.26367a2.2856,2.2856,0,0,1-1.79-.8418,9.81,9.81,0,0,1-1.36816-2.10547,8.84239,8.84239,0,0,1-.8418-2.52637,12.50787,12.50787,0,0,1-.21094-1.89453L1411.77331,0h44.4209Z"/><path class="17a51cd2-d50c-4abf-8e08-65cba2ce5b3e" d="M1231.03518,90.94824q.83789-2.7334,4.4209-3.79h23.5791q2.31445.2124,2.31543,3.5791L1255.877,107.79a9.38992,9.38992,0,0,1-4.63184,3.5791H1227.877a8.31247,8.31247,0,0,1-1.78906-.94727q-.74121-.52295-.52637-2.63184Z"/></svg>